<svg width="70" height="70" viewBox="0 0 70 70" fill="none" xmlns="http://www.w3.org/2000/svg">
<path d="M51.0918 36.6201C51.0645 31.958 53.1768 28.4443 57.4424 25.8535C55.0566 22.4355 51.4473 20.5557 46.6895 20.1934C42.1846 19.8379 37.2559 22.8184 35.4512 22.8184C33.5439 22.8184 29.1826 20.3164 25.751 20.3164C18.6689 20.4258 11.1426 25.9629 11.1426 37.2285C11.1426 40.5576 11.751 43.9961 12.9678 47.5371C14.5947 52.1992 20.46 63.6221 26.5781 63.4375C29.7773 63.3623 32.04 61.168 36.2031 61.168C40.2432 61.168 42.335 63.4375 45.9033 63.4375C52.0762 63.3486 57.3809 52.9648 58.9258 48.2891C50.6475 44.3857 51.0918 36.8594 51.0918 36.6201V36.6201ZM43.9072 15.7705C47.373 11.6553 47.0586 7.90918 46.9561 6.5625C43.8936 6.74023 40.3525 8.64746 38.3359 10.9922C36.1143 13.5078 34.8086 16.6182 35.0889 20.125C38.3975 20.3779 41.4189 18.6758 43.9072 15.7705V15.7705Z" fill="white"/>
</svg>
