<svg width="36" height="36" viewBox="0 0 36 36" fill="none" xmlns="http://www.w3.org/2000/svg">
<path fill-rule="evenodd" clip-rule="evenodd" d="M6.58498 6.61058C6.95966 6.23563 7.46777 6.025 7.99756 6.025C8.52736 6.025 9.03546 6.23563 9.41014 6.61058L17.9875 15.1966L26.5649 6.61058C26.7492 6.41956 26.9697 6.26719 27.2134 6.16237C27.4572 6.05756 27.7194 6.00238 27.9846 6.00008C28.2499 5.99777 28.513 6.04837 28.7586 6.14893C29.0041 6.24949 29.2272 6.398 29.4148 6.58579C29.6024 6.77357 29.7508 6.99688 29.8512 7.24267C29.9517 7.48846 30.0022 7.75182 29.9999 8.01738C29.9976 8.28294 29.9425 8.54538 29.8378 8.78939C29.7331 9.03339 29.5809 9.25408 29.39 9.43858L20.8127 18.0246L29.39 26.6106C29.754 26.9878 29.9554 27.493 29.9508 28.0174C29.9463 28.5418 29.7361 29.0434 29.3657 29.4142C28.9953 29.785 28.4941 29.9954 27.9703 29.9999C27.4464 30.0045 26.9417 29.8029 26.5649 29.4386L17.9875 20.8526L9.41014 29.4386C9.03332 29.8029 8.52862 30.0045 8.00475 29.9999C7.48089 29.9954 6.97977 29.785 6.60932 29.4142C6.23888 29.0434 6.02875 28.5418 6.0242 28.0174C6.01965 27.493 6.22103 26.9878 6.58498 26.6106L15.1624 18.0246L6.58498 9.43858C6.21042 9.06352 6 8.5549 6 8.02458C6 7.49425 6.21042 6.98563 6.58498 6.61058V6.61058Z" fill="white"/>
</svg>
